<?xml version="1.0" standalone="no"?>
<!DOCTYPE svg PUBLIC "-//W3C//DTD SVG 20010904//EN"
 "http://www.w3.org/TR/2001/REC-SVG-20010904/DTD/svg10.dtd">
<svg version="1.0" xmlns="http://www.w3.org/2000/svg"
 width="2000.000000pt" height="1333.000000pt" viewBox="0 0 2000.000000 1333.000000"
 preserveAspectRatio="xMidYMid meet">

<g transform="translate(0.000000,1333.000000) scale(0.100000,-0.100000)"
fill="#000000" stroke="none">
<path d="M835 13289 c-38 -11 -86 -87 -93 -147 -11 -100 78 -167 185 -139 32
8 50 22 78 59 34 44 36 51 30 96 -8 62 -51 117 -103 132 -43 11 -56 11 -97 -1z"/>
<path d="M3220 13263 c-53 -28 -80 -75 -80 -144 0 -32 5 -61 10 -64 6 -3 10
-14 10 -24 0 -17 26 -40 75 -66 25 -14 108 -11 113 4 2 6 9 11 16 11 18 0 41
32 61 83 16 42 16 49 1 95 -25 75 -63 112 -122 117 -35 4 -59 0 -84 -12z"/>
<path d="M10475 13168 c-63 -22 -95 -74 -95 -152 0 -44 26 -116 41 -116 4 0
14 -6 21 -13 55 -52 202 -48 251 7 50 56 58 110 25 181 -25 55 -38 69 -77 88
-38 19 -119 21 -166 5z"/>
<path d="M12859 13111 c-19 -10 -42 -33 -52 -53 -16 -33 -16 -39 -1 -107 17
-75 39 -107 82 -118 13 -3 29 0 35 6 6 6 27 11 47 11 37 0 62 20 75 59 3 12
10 21 14 21 8 0 11 21 12 72 0 25 -29 83 -52 104 -28 25 -116 28 -160 5z"/>
<path d="M15335 13095 c-5 -2 -23 -6 -38 -9 -45 -10 -87 -86 -87 -156 0 -52 3
-59 38 -93 31 -30 48 -39 88 -43 32 -4 58 -1 75 8 29 15 90 81 93 100 1 7 5
19 9 26 5 7 3 12 -3 12 -7 0 -10 7 -6 15 3 8 1 15 -4 15 -5 0 -7 7 -4 15 4 8
1 15 -7 15 -7 0 -10 3 -6 6 9 9 -55 73 -78 79 -11 2 -29 6 -40 9 -11 3 -24 3
-30 1z"/>
<path d="M17646 11253 c-32 -5 -60 -32 -82 -80 -19 -45 -18 -79 7 -131 31 -63
70 -84 140 -79 50 4 61 9 93 43 44 48 51 72 36 121 -36 116 -77 143 -194 126z"/>
<path d="M12795 11221 c-46 -28 -63 -52 -68 -98 -11 -92 31 -159 111 -182 64
-19 141 31 160 103 13 44 5 82 -26 129 -44 66 -116 86 -177 48z"/>
<path d="M5576 11203 c-46 -13 -84 -59 -90 -112 -10 -75 8 -120 61 -155 63
-41 120 -38 170 7 31 29 37 41 41 89 4 57 -9 100 -47 145 -19 23 -95 37 -135
26z"/>
<path d="M8015 11203 c-56 -14 -82 -35 -94 -74 -32 -107 35 -199 145 -199 91
0 141 82 113 187 -17 62 -52 93 -103 92 -22 -1 -50 -3 -61 -6z"/>
<path d="M18874 10309 c-36 -10 -63 -37 -69 -69 -2 -12 -6 -25 -9 -27 -8 -8
15 -87 35 -114 11 -17 38 -34 68 -44 45 -15 51 -14 92 3 24 11 50 27 58 35 18
23 31 87 21 106 -5 9 -11 29 -15 44 -10 50 -47 77 -102 76 -26 0 -62 -5 -79
-10z"/>
<path d="M1930 10248 c-39 -20 -47 -30 -63 -77 -15 -44 -16 -60 -6 -90 18 -57
35 -77 83 -100 38 -19 50 -21 84 -11 39 10 101 66 103 93 0 7 3 25 5 40 6 33
-25 103 -59 135 -35 33 -93 36 -147 10z"/>
<path d="M15265 9363 c-16 -3 -44 -19 -61 -36 -26 -26 -33 -43 -38 -87 -13
-123 -7 -137 64 -146 25 -3 52 -8 60 -11 44 -17 126 16 156 63 14 21 14 29 -7
91 -27 82 -38 96 -87 112 -55 18 -55 18 -87 14z"/>
<path d="M10404 9334 c-74 -39 -94 -84 -71 -158 9 -29 27 -62 39 -73 39 -36
137 -53 188 -31 89 36 103 57 96 135 -2 28 -9 61 -16 72 -28 53 -175 86 -236
55z"/>
<path d="M6762 8383 c-101 -50 -72 -232 41 -258 15 -4 49 -1 76 6 60 15 91 55
91 117 0 67 -21 104 -72 130 -53 26 -91 28 -136 5z"/>
<path d="M12852 8059 c-45 -9 -70 -34 -98 -98 -33 -73 -16 -149 40 -178 38
-20 133 -20 172 -2 39 19 67 103 52 156 -19 73 -105 135 -166 122z"/>
<path d="M3168 8034 c-40 -21 -93 -88 -107 -134 -11 -38 -10 -44 19 -99 18
-33 42 -63 56 -70 56 -25 138 -6 183 43 19 20 26 40 29 86 4 53 1 66 -22 100
-26 40 -94 91 -118 89 -7 -1 -25 -8 -40 -15z"/>
<path d="M740 8007 c-38 -10 -48 -18 -65 -53 -11 -23 -26 -48 -33 -56 -21 -26
-6 -84 35 -133 l37 -45 72 0 c98 0 126 26 140 129 l7 52 -60 59 c-64 64 -65
64 -133 47z"/>
<path d="M18918 7143 c-26 -4 -68 -48 -68 -71 0 -5 -7 -15 -15 -22 -9 -7 -15
-29 -15 -55 0 -34 7 -51 38 -89 30 -38 43 -46 72 -47 19 -1 48 -2 64 -3 43 -3
86 32 103 83 19 57 11 98 -29 142 -60 65 -78 73 -150 62z"/>
<path d="M11620 7116 c-28 -9 -40 -22 -63 -71 -36 -76 -33 -119 15 -174 33
-39 34 -39 108 -40 93 -1 114 11 135 81 23 79 20 92 -37 153 -58 61 -92 73
-158 51z"/>
<path d="M17713 6190 c-40 -9 -57 -22 -83 -64 -45 -74 -18 -186 53 -222 26
-14 38 -15 85 -4 118 26 160 138 87 233 -42 55 -82 71 -142 57z"/>
<path d="M15300 6169 c-35 -14 -69 -48 -92 -92 -23 -45 -14 -85 27 -129 28
-31 94 -53 109 -38 6 6 25 10 43 10 93 0 95 192 2 242 -38 20 -53 21 -89 7z"/>
<path d="M5594 6140 c-22 -10 -54 -34 -72 -54 -27 -31 -32 -45 -32 -86 0 -48
2 -51 53 -90 44 -33 62 -40 98 -40 24 0 60 8 79 18 29 14 37 25 47 67 11 43
11 58 -3 102 -9 29 -25 60 -35 69 -30 27 -89 33 -135 14z"/>
<path d="M8020 6143 c-19 -8 -42 -31 -69 -71 -28 -40 -25 -104 5 -145 23 -31
83 -52 121 -43 15 4 38 8 51 9 50 4 80 86 56 151 -26 69 -35 83 -61 95 -25 12
-78 13 -103 4z"/>
<path d="M1918 5165 c-75 -56 -89 -131 -35 -182 64 -61 94 -69 192 -50 36 7
57 49 57 116 0 97 -44 150 -123 151 -37 0 -55 -7 -91 -35z"/>
<path d="M17698 4277 c-60 -41 -78 -75 -67 -130 13 -71 27 -95 71 -127 48 -35
70 -34 144 7 73 41 91 81 73 164 -9 41 -18 55 -56 84 -60 46 -101 46 -165 2z"/>
<path d="M10487 4289 c-62 -7 -71 -11 -114 -52 -44 -42 -46 -48 -45 -95 3
-147 130 -215 269 -145 77 39 97 75 88 155 -7 55 -12 65 -47 97 -49 44 -65 49
-151 40z"/>
<path d="M12849 4273 c-56 -35 -95 -125 -79 -184 17 -63 46 -88 118 -100 96
-17 143 10 157 90 18 103 -41 200 -125 207 -30 2 -54 -2 -71 -13z"/>
<path d="M5562 4243 c-36 -34 -72 -102 -72 -139 0 -43 36 -108 67 -121 15 -7
53 -15 83 -18 65 -7 98 7 119 50 19 38 17 135 -3 172 -42 81 -136 108 -194 56z"/>
<path d="M720 4236 c-38 -14 -52 -36 -68 -106 -10 -41 -8 -46 18 -76 15 -18
29 -36 31 -41 3 -4 19 -21 36 -37 30 -27 34 -28 50 -14 10 9 32 18 48 20 25 2
34 12 54 51 20 40 22 56 16 102 -12 98 -84 137 -185 101z"/>
<path d="M14080 3353 c-8 -3 -17 -9 -20 -12 -3 -4 -20 -17 -37 -30 -39 -27
-52 -69 -41 -130 14 -78 70 -131 136 -131 41 1 124 51 145 88 17 30 18 39 7
98 -11 60 -16 67 -55 94 -42 29 -95 38 -135 23z"/>
<path d="M11631 3331 c-26 -14 -38 -29 -48 -62 -18 -61 -16 -86 7 -109 11 -11
20 -24 20 -28 0 -5 15 -23 34 -40 19 -17 36 -36 39 -44 3 -9 10 -6 22 10 12
17 25 23 41 19 24 -4 51 18 73 60 16 31 14 119 -4 153 -30 58 -116 77 -184 41z"/>
<path d="M4385 3329 c-42 -12 -75 -45 -75 -74 0 -13 -4 -35 -10 -49 -8 -21 -5
-31 15 -55 14 -16 25 -32 25 -36 0 -4 18 -25 39 -46 33 -32 42 -35 52 -23 6 8
24 14 40 14 46 0 83 58 83 129 1 70 -19 111 -64 133 -39 19 -60 20 -105 7z"/>
<path d="M7969 2331 c-31 -31 -39 -46 -39 -76 0 -48 24 -87 71 -116 21 -13 39
-27 39 -30 0 -18 37 -17 74 2 93 47 109 147 36 222 -34 33 -43 37 -90 37 -47
0 -56 -4 -91 -39z"/>
<path d="M14129 1449 c-36 -9 -105 -55 -123 -81 -22 -30 -20 -48 11 -142 29
-88 38 -100 64 -85 12 6 34 5 62 -3 40 -10 48 -9 80 11 20 12 46 35 57 51 24
33 26 96 5 124 -8 11 -15 28 -15 37 0 10 -6 22 -13 26 -7 4 -20 20 -29 34 -18
28 -57 40 -99 28z"/>
<path d="M11669 1428 c-80 -20 -121 -110 -80 -175 30 -48 111 -104 140 -97 29
6 91 52 91 67 0 6 8 19 17 29 16 17 15 22 -4 75 -29 83 -89 119 -164 101z"/>
<path d="M19005 1428 c-23 -13 -51 -49 -47 -60 1 -5 -2 -8 -8 -8 -15 0 -12
-57 5 -90 9 -17 38 -48 66 -70 52 -41 69 -42 120 -7 23 17 69 83 69 101 0 17
-26 77 -42 96 -38 47 -116 65 -163 38z"/>
<path d="M1963 1418 c-34 -7 -50 -19 -78 -55 -38 -50 -42 -76 -21 -128 14 -32
78 -88 117 -100 25 -8 91 11 116 34 28 27 39 117 20 162 -29 69 -86 101 -154
87z"/>
<path d="M5610 473 c-39 -15 -91 -56 -104 -80 -18 -37 -28 -121 -15 -144 12
-24 38 -37 100 -53 56 -15 101 -5 139 29 27 24 43 88 35 136 -8 45 -53 99 -83
99 -12 0 -24 5 -27 10 -7 11 -21 12 -45 3z"/>
<path d="M3140 442 c-59 -38 -71 -53 -77 -102 -5 -33 -2 -45 14 -59 11 -11 28
-29 39 -42 22 -28 65 -49 99 -49 38 0 81 48 103 115 19 57 20 62 4 89 -23 39
-60 65 -102 72 -27 4 -45 -1 -80 -24z"/>
<path d="M7993 451 c-59 -28 -77 -58 -68 -121 4 -27 11 -50 15 -50 5 0 12 -9
15 -20 10 -30 74 -70 113 -70 64 0 142 76 142 138 0 111 -109 172 -217 123z"/>
<path d="M10431 432 c-45 -30 -57 -45 -67 -81 -12 -40 -11 -47 6 -72 11 -14
36 -41 55 -58 33 -29 41 -31 114 -31 68 0 80 3 98 23 23 25 53 108 53 147 0
60 -67 107 -155 108 -42 1 -59 -5 -104 -36z"/>
<path d="M15355 458 c-83 -30 -110 -74 -90 -151 14 -55 45 -93 95 -113 49 -21
88 -11 137 36 80 78 62 171 -41 221 -44 21 -58 22 -101 7z"/>
<path d="M693 441 c-25 -12 -48 -32 -58 -51 -30 -58 17 -160 92 -199 39 -20
78 -13 126 24 75 57 80 136 15 202 -44 44 -112 53 -175 24z"/>
</g>
</svg>
